400.ufo
<glyph name="exclam" format="1">
  <advance width="710"/>
  <unicode hex="0021"/>
  <outline>
    <contour>
      <point x="311" y="429" type="line"/>
      <point x="377" y="429" type="line"/>
      <point x="429" y="1335" type="line"/>
      <point x="429" y="1457" type="line"/>
      <point x="253" y="1457" type="line"/>
      <point x="253" y="1335" type="line"/>
    </contour>
    <contour>
      <point x="345" y="-13" type="curve" smooth="yes"/>
      <point x="425" y="-13"/>
      <point x="460" y="45"/>
      <point x="460" y="105" type="curve" smooth="yes"/>
      <point x="460" y="162"/>
      <point x="425" y="222"/>
      <point x="345" y="222" type="curve" smooth="yes"/>
      <point x="265" y="222"/>
      <point x="230" y="162"/>
      <point x="230" y="105" type="curve" smooth="yes"/>
      <point x="230" y="47"/>
      <point x="265" y="-13"/>
    </contour>
  </outline>
</glyph>
<glyph name="dollar" format="1">
  <advance width="1221"/>
  <unicode hex="0024"/>
  <outline>
    <contour>
      <point x="187" y="1785" type="line"/>
      <point x="149" y="1446" type="line"/>
      <point x="290" y="1446" type="line"/>
      <point x="290" y="1785" type="line"/>
    </contour>
    <contour>
      <point x="147" y="61" type="line"/>
      <point x="147" y="-278" type="line"/>
      <point x="244" y="-278" type="line"/>
      <point x="282" y="61" type="line"/>
    </contour>
    <component base="S" xOffset="-398.96"/>
  </outline>
</glyph>
<glyph name="percent" format="1">
  <advance width="1563"/>
  <unicode hex="0025"/>
  <outline>
    <contour>
      <point x="356" y="810" type="curve" smooth="yes"/>
      <point x="200" y="810"/>
      <point x="172" y="931"/>
      <point x="172" y="1097" type="curve" smooth="yes"/>
      <point x="172" y="1258"/>
      <point x="200" y="1381"/>
      <point x="356" y="1381" type="curve" smooth="yes"/>
      <point x="511" y="1381"/>
      <point x="539" y="1264"/>
      <point x="539" y="1097" type="curve" smooth="yes"/>
      <point x="539" y="936"/>
      <point x="512" y="810"/>
    </contour>
    <contour>
      <point x="355" y="714" type="curve" smooth="yes"/>
      <point x="579" y="714"/>
      <point x="655" y="881"/>
      <point x="655" y="1096" type="curve" smooth="yes"/>
      <point x="655" y="1316"/>
      <point x="582" y="1477"/>
      <point x="355" y="1477" type="curve" smooth="yes"/>
      <point x="133" y="1477"/>
      <point x="63" y="1313"/>
      <point x="63" y="1096" type="curve" smooth="yes"/>
      <point x="63" y="881"/>
      <point x="129" y="714"/>
    </contour>
    <contour>
      <point x="251" y="0" type="line"/>
      <point x="383" y="0" type="line"/>
      <point x="1202" y="1457" type="line"/>
      <point x="1080" y="1457" type="line"/>
    </contour>
    <contour>
      <point x="1101" y="94" type="curve" smooth="yes"/>
      <point x="945" y="94"/>
      <point x="917" y="216"/>
      <point x="917" y="382" type="curve" smooth="yes"/>
      <point x="917" y="543"/>
      <point x="945" y="666"/>
      <point x="1101" y="666" type="curve" smooth="yes"/>
      <point x="1256" y="666"/>
      <point x="1284" y="549"/>
      <point x="1284" y="382" type="curve" smooth="yes"/>
      <point x="1284" y="221"/>
      <point x="1257" y="94"/>
    </contour>
    <contour>
      <point x="1100" y="-1" type="curve" smooth="yes"/>
      <point x="1324" y="-1"/>
      <point x="1400" y="166"/>
      <point x="1400" y="381" type="curve" smooth="yes"/>
      <point x="1400" y="601"/>
      <point x="1327" y="763"/>
      <point x="1100" y="763" type="curve" smooth="yes"/>
      <point x="878" y="763"/>
      <point x="801" y="598"/>
      <point x="801" y="381" type="curve" smooth="yes"/>
      <point x="801" y="166"/>
      <point x="874" y="-1"/>
    </contour>
  </outline>
</glyph>
<glyph name="parenright" format="1">
  <advance width="766"/>
  <unicode hex="0029"/>
  <outline>
    <contour>
      <point x="167" y="1556" type="line"/>
      <point x="342" y="1259"/>
      <point x="410" y="969"/>
      <point x="410" y="680" type="curve"/>
      <point x="560" y="680" type="line"/>
      <point x="560" y="1003"/>
      <point x="471" y="1315"/>
      <point x="303" y="1590" type="curve"/>
      <point x="167" y="1590" type="line"/>
    </contour>
    <contour>
      <point x="303" y="-230" type="line"/>
      <point x="471" y="45"/>
      <point x="560" y="357"/>
      <point x="560" y="680" type="curve"/>
      <point x="410" y="680" type="line"/>
      <point x="410" y="391"/>
      <point x="342" y="101"/>
      <point x="167" y="-196" type="curve"/>
      <point x="167" y="-230" type="line"/>
    </contour>
  </outline>
</glyph>
<glyph name="asterisk" format="1">
  <advance width="937"/>
  <unicode hex="002A"/>
  <outline>
    <contour>
      <point x="288" y="599" type="line"/>
      <point x="467" y="937" type="line"/>
      <point x="659" y="599" type="line"/>
      <point x="716" y="635"/>
      <point x="731" y="645"/>
      <point x="788" y="681" type="curve"/>
      <point x="695" y="798"/>
      <point x="589" y="940"/>
      <point x="551" y="991" type="curve"/>
      <point x="896" y="1068" type="line"/>
      <point x="854" y="1215" type="line"/>
      <point x="516" y="1075" type="line"/>
      <point x="552" y="1456" type="line"/>
      <point x="392" y="1456" type="line"/>
      <point x="426" y="1075" type="line"/>
      <point x="90" y="1215" type="line"/>
      <point x="48" y="1068" type="line"/>
      <point x="389" y="991" type="line"/>
      <point x="158" y="681" type="line"/>
    </contour>
  </outline>
</glyph>
<glyph name="hyphen" format="1">
  <advance width="852"/>
  <unicode hex="002D"/>
  <outline>
    <contour>
      <point x="175" y="535" type="line"/>
      <point x="666" y="535" type="line"/>
      <point x="666" y="668" type="line"/>
      <point x="175" y="668" type="line"/>
    </contour>
    <contour>
      <point x="401" y="614" type="move" name="_mid"/>
    </contour>
  </outline>
</glyph>
<glyph name="zero" format="1">
  <advance width="1248"/>
  <unicode hex="0030"/>
  <outline>
    <contour>
      <point x="629" y="123" type="curve" smooth="yes"/>
      <point x="427" y="123"/>
      <point x="301" y="282"/>
      <point x="301" y="708" type="curve"/>
      <point x="300" y="1114"/>
      <point x="427" y="1334"/>
      <point x="629" y="1334" type="curve" smooth="yes"/>
      <point x="831" y="1334"/>
      <point x="947" y="1143"/>
      <point x="947" y="709" type="curve" smooth="yes"/>
      <point x="947" y="283"/>
      <point x="831" y="123"/>
    </contour>
    <contour>
      <point x="629" y="-20" type="curve" smooth="yes"/>
      <point x="972" y="-20"/>
      <point x="1112" y="259"/>
      <point x="1112" y="703" type="curve" smooth="yes"/>
      <point x="1112" y="1170"/>
      <point x="956" y="1476"/>
      <point x="629" y="1476" type="curve" smooth="yes"/>
      <point x="302" y="1476"/>
      <point x="136" y="1169"/>
      <point x="136" y="703" type="curve" smooth="yes"/>
      <point x="136" y="259"/>
      <point x="286" y="-20"/>
    </contour>
  </outline>
</glyph>
<glyph name="two" format="1">
  <advance width="1248"/>
  <unicode hex="0032"/>
  <outline>
    <contour>
      <point x="263" y="1204" type="line"/>
      <point x="336" y="1287"/>
      <point x="464" y="1335"/>
      <point x="586" y="1335" type="curve" smooth="yes"/>
      <point x="744" y="1335"/>
      <point x="892" y="1253"/>
      <point x="892" y="1058" type="curve" smooth="yes"/>
      <point x="892" y="890"/>
      <point x="828" y="825"/>
      <point x="682" y="682" type="curve" smooth="yes"/>
      <point x="142" y="151" type="line"/>
      <point x="168" y="0" type="line"/>
      <point x="1024" y="0" type="line"/>
      <point x="1033" y="142" type="line"/>
      <point x="282" y="142" type="line"/>
      <point x="301" y="112" type="line"/>
      <point x="784" y="573" type="line" smooth="yes"/>
      <point x="980" y="761"/>
      <point x="1052" y="855"/>
      <point x="1052" y="1064" type="curve" smooth="yes"/>
      <point x="1052" y="1347"/>
      <point x="825" y="1476"/>
      <point x="589" y="1476" type="curve" smooth="yes"/>
      <point x="428" y="1476"/>
      <point x="263" y="1416"/>
      <point x="163" y="1303" type="curve"/>
      <point x="244" y="1204" type="line"/>
    </contour>
  </outline>
</glyph>
<glyph name="five" format="1">
  <advance width="1248"/>
  <unicode hex="0035"/>
  <outline>
    <contour>
      <point x="280" y="290" type="line"/>
      <point x="181" y="196" type="line"/>
      <point x="238" y="100"/>
      <point x="398" y="-20"/>
      <point x="620" y="-20" type="curve" smooth="yes"/>
      <point x="965" y="-20"/>
      <point x="1128" y="228"/>
      <point x="1128" y="471" type="curve" smooth="yes"/>
      <point x="1128" y="705"/>
      <point x="977" y="935"/>
      <point x="689" y="935" type="curve" smooth="yes"/>
      <point x="543" y="935"/>
      <point x="444" y="872"/>
      <point x="362" y="773" type="curve"/>
      <point x="411" y="771" type="line"/>
      <point x="464" y="1321" type="line"/>
      <point x="1018" y="1321" type="line"/>
      <point x="1036" y="1456" type="line"/>
      <point x="302" y="1456" type="line"/>
      <point x="258" y="702" type="line"/>
      <point x="395" y="680" type="line"/>
      <point x="464" y="766"/>
      <point x="570" y="811"/>
      <point x="681" y="806" type="curve" smooth="yes"/>
      <point x="853" y="798"/>
      <point x="949" y="633"/>
      <point x="949" y="468" type="curve" smooth="yes"/>
      <point x="949" y="296"/>
      <point x="846" y="124"/>
      <point x="622" y="124" type="curve" smooth="yes"/>
      <point x="471" y="124"/>
      <point x="376" y="181"/>
      <point x="295" y="290" type="curve"/>
    </contour>
  </outline>
</glyph>
<glyph name="colon" format="1">
  <advance width="653"/>
  <unicode hex="003A"/>
  <outline>
    <contour>
      <point x="322" y="838" type="curve" smooth="yes"/>
      <point x="404" y="838"/>
      <point x="439" y="898"/>
      <point x="439" y="960" type="curve" smooth="yes"/>
      <point x="439" y="1020"/>
      <point x="404" y="1083"/>
      <point x="322" y="1083" type="curve" smooth="yes"/>
      <point x="239" y="1083"/>
      <point x="201" y="1020"/>
      <point x="201" y="960" type="curve" smooth="yes"/>
      <point x="201" y="898"/>
      <point x="240" y="838"/>
    </contour>
    <contour>
      <point x="322" y="-10" type="curve" smooth="yes"/>
      <point x="404" y="-10"/>
      <point x="439" y="50"/>
      <point x="439" y="112" type="curve" smooth="yes"/>
      <point x="439" y="172"/>
      <point x="404" y="235"/>
      <point x="322" y="235" type="curve" smooth="yes"/>
      <point x="239" y="235"/>
      <point x="201" y="172"/>
      <point x="201" y="112" type="curve" smooth="yes"/>
      <point x="201" y="50"/>
      <point x="240" y="-10"/>
    </contour>
  </outline>
</glyph>
<glyph name="at" format="1">
  <advance width="1931"/>
  <unicode hex="0040"/>
  <outline>
    <contour>
      <point x="940" y="-202" type="curve" smooth="yes"/>
      <point x="1131" y="-202"/>
      <point x="1324" y="-153"/>
      <point x="1452" y="-65" type="curve"/>
      <point x="1410" y="38" type="line"/>
      <point x="1275" y="-48"/>
      <point x="1107" y="-79"/>
      <point x="943" y="-79" type="curve" smooth="yes"/>
      <point x="523" y="-79"/>
      <point x="291" y="198"/>
      <point x="291" y="603" type="curve" smooth="yes"/>
      <point x="291" y="1028"/>
      <point x="565" y="1357"/>
      <point x="1000" y="1357" type="curve" smooth="yes"/>
      <point x="1428" y="1357"/>
      <point x="1637" y="1092"/>
      <point x="1637" y="752" type="curve" smooth="yes"/>
      <point x="1637" y="477"/>
      <point x="1512" y="336"/>
      <point x="1395" y="336" type="curve" smooth="yes"/>
      <point x="1320" y="336"/>
      <point x="1262" y="397"/>
      <point x="1262" y="480" type="curve" smooth="yes"/>
      <point x="1262" y="606"/>
      <point x="1299" y="793"/>
      <point x="1327" y="998" type="curve"/>
      <point x="1241" y="1042"/>
      <point x="1110" y="1071"/>
      <point x="1014" y="1071" type="curve" smooth="yes"/>
      <point x="730" y="1071"/>
      <point x="580" y="815"/>
      <point x="580" y="565" type="curve" smooth="yes"/>
      <point x="580" y="366"/>
      <point x="688" y="211"/>
      <point x="876" y="211" type="curve" smooth="yes"/>
      <point x="1028" y="211"/>
      <point x="1123" y="339"/>
      <point x="1169" y="455" type="curve"/>
      <point x="1151" y="464" type="line"/>
      <point x="1175" y="313"/>
      <point x="1254" y="215"/>
      <point x="1395" y="215" type="curve" smooth="yes"/>
      <point x="1566" y="215"/>
      <point x="1764" y="394"/>
      <point x="1764" y="744" type="curve" smooth="yes"/>
      <point x="1764" y="1193"/>
      <point x="1436" y="1476"/>
      <point x="1007" y="1476" type="curve" smooth="yes"/>
      <point x="510" y="1476"/>
      <point x="147" y="1107"/>
      <point x="147" y="607" type="curve" smooth="yes"/>
      <point x="147" y="105"/>
      <point x="471" y="-202"/>
    </contour>
    <contour>
      <point x="893" y="326" type="curve" smooth="yes"/>
      <point x="771" y="326"/>
      <point x="721" y="420"/>
      <point x="718" y="562" type="curve" smooth="yes"/>
      <point x="713" y="794"/>
      <point x="843" y="966"/>
      <point x="1030" y="966" type="curve" smooth="yes"/>
      <point x="1059" y="966"/>
      <point x="1123" y="956"/>
      <point x="1168" y="946" type="curve"/>
      <point x="1125" y="688" type="line" smooth="yes"/>
      <point x="1093" y="487"/>
      <point x="1045" y="326"/>
    </contour>
  </outline>
</glyph>
<glyph name="A" format="1">
  <advance width="1407"/>
  <unicode hex="0041"/>
  <outline>
    <contour>
      <point x="615" y="1456" type="line"/>
      <point x="64" y="0" type="line"/>
      <point x="237" y="0" type="line"/>
      <point x="428" y="513" type="line"/>
      <point x="366" y="462" type="line"/>
      <point x="1046" y="462" type="line"/>
      <point x="979" y="508" type="line"/>
      <point x="1169" y="0" type="line"/>
      <point x="1343" y="0" type="line"/>
      <point x="786" y="1456" type="line"/>
    </contour>
    <contour>
      <point x="675" y="1350" type="line"/>
      <point x="973" y="535" type="line"/>
      <point x="1013" y="587" type="line"/>
      <point x="402" y="587" type="line"/>
      <point x="435" y="543" type="line"/>
      <point x="727" y="1350" type="line"/>
    </contour>
    <contour>
      <point x="701" y="0" type="move" name="bot"/>
    </contour>
    <contour>
      <point x="1237" y="0" type="move" name="ogonek"/>
    </contour>
    <contour>
      <point x="699" y="1456" type="move" name="top"/>
    </contour>
  </outline>
</glyph>
<glyph name="B" format="1">
  <advance width="1366"/>
  <unicode hex="0042"/>
  <outline>
    <contour>
      <point x="552" y="-10" type="curve" smooth="yes"/>
      <point x="1030" y="-10"/>
      <point x="1230" y="117"/>
      <point x="1230" y="432" type="curve" smooth="yes"/>
      <point x="1230" y="627"/>
      <point x="1129" y="764"/>
      <point x="866" y="804" type="curve"/>
      <point x="866" y="772" type="line"/>
      <point x="1106" y="826"/>
      <point x="1177" y="954"/>
      <point x="1177" y="1099" type="curve" smooth="yes"/>
      <point x="1177" y="1237"/>
      <point x="1172" y="1464"/>
      <point x="622" y="1464" type="curve" smooth="yes"/>
      <point x="508" y="1464"/>
      <point x="371" y="1454"/>
      <point x="206" y="1432" type="curve"/>
      <point x="206" y="7" type="line"/>
      <point x="335" y="-4"/>
      <point x="450" y="-10"/>
    </contour>
    <contour>
      <point x="382" y="90" type="line"/>
      <point x="382" y="776" type="line"/>
      <point x="323" y="723" type="line"/>
      <point x="653" y="723" type="line" smooth="yes"/>
      <point x="935" y="723"/>
      <point x="1056" y="635"/>
      <point x="1056" y="424" type="curve" smooth="yes"/>
      <point x="1056" y="263"/>
      <point x="1028" y="124"/>
      <point x="585" y="124" type="curve" smooth="yes"/>
      <point x="515" y="124"/>
      <point x="434" y="128"/>
      <point x="342" y="135" type="curve"/>
    </contour>
    <contour>
      <point x="382" y="804" type="line"/>
      <point x="382" y="1372" type="line"/>
      <point x="322" y="1315" type="line"/>
      <point x="443" y="1329"/>
      <point x="545" y="1336"/>
      <point x="629" y="1336" type="curve" smooth="yes"/>
      <point x="928" y="1336"/>
      <point x="1020" y="1250"/>
      <point x="1020" y="1089" type="curve" smooth="yes"/>
      <point x="1020" y="886"/>
      <point x="854" y="849"/>
      <point x="664" y="849" type="curve" smooth="yes"/>
      <point x="326" y="849" type="line"/>
    </contour>
    <contour>
      <point x="723" y="0" type="move" name="bot"/>
    </contour>
    <contour>
      <point x="654" y="1456" type="move" name="top"/>
    </contour>
  </outline>
</glyph>
<glyph name="E" format="1">
  <advance width="1304"/>
  <unicode hex="0045"/>
  <outline>
    <contour>
      <point x="206" y="1456" type="line"/>
      <point x="206" y="0" type="line"/>
      <point x="1160" y="0" type="line"/>
      <point x="1172" y="137" type="line"/>
      <point x="323" y="137" type="line"/>
      <point x="382" y="67" type="line"/>
      <point x="382" y="741" type="line"/>
      <point x="323" y="686" type="line"/>
      <point x="1089" y="686" type="line"/>
      <point x="1089" y="822" type="line"/>
      <point x="323" y="822" type="line"/>
      <point x="382" y="775" type="line"/>
      <point x="382" y="1374" type="line"/>
      <point x="323" y="1321" type="line"/>
      <point x="1151" y="1321" type="line"/>
      <point x="1157" y="1456" type="line"/>
    </contour>
    <contour>
      <point x="883" y="0" type="move" name="ogonek"/>
    </contour>
    <contour>
      <point x="736" y="1456" type="move" name="top"/>
    </contour>
    <contour>
      <point x="288" y="720" type="move" name="_OE"/>
    </contour>
    <contour>
      <point x="713" y="0" type="move" name="bot"/>
    </contour>
  </outline>
</glyph>
<glyph name="G" format="1">
  <advance width="1466"/>
  <unicode hex="0047"/>
  <outline>
    <contour>
      <point x="820" y="-20" type="curve" smooth="yes"/>
      <point x="1016" y="-20"/>
      <point x="1173" y="14"/>
      <point x="1320" y="72" type="curve"/>
      <point x="1320" y="764" type="line"/>
      <point x="837" y="764" type="line"/>
      <point x="828" y="646" type="line"/>
      <point x="1205" y="621" type="line"/>
      <point x="1157" y="676" type="line"/>
      <point x="1157" y="108" type="line"/>
      <point x="1217" y="183" type="line"/>
      <point x="1149" y="161"/>
      <point x="1030" y="123"/>
      <point x="851" y="123" type="curve" smooth="yes"/>
      <point x="466" y="123"/>
      <point x="333" y="369"/>
      <point x="333" y="738" type="curve" smooth="yes"/>
      <point x="333" y="1091"/>
      <point x="510" y="1334"/>
      <point x="852" y="1334" type="curve" smooth="yes"/>
      <point x="1035" y="1334"/>
      <point x="1164" y="1260"/>
      <point x="1228" y="1194" type="curve"/>
      <point x="1244" y="1194" type="line"/>
      <point x="1324" y="1298" type="line"/>
      <point x="1237" y="1400"/>
      <point x="1060" y="1476"/>
      <point x="849" y="1476" type="curve" smooth="yes"/>
      <point x="410" y="1476"/>
      <point x="156" y="1186"/>
      <point x="156" y="737" type="curve" smooth="yes"/>
      <point x="156" y="293"/>
      <point x="371" y="-20"/>
    </contour>
    <contour>
      <point x="810" y="1" type="move" name="bot"/>
    </contour>
    <contour>
      <point x="795" y="1456" type="move" name="top"/>
    </contour>
  </outline>
</glyph>
<glyph name="J" format="1">
  <advance width="795"/>
  <unicode hex="004A"/>
  <outline>
    <contour>
      <point x="381" y="1456" type="line"/>
      <point x="381" y="5" type="line" smooth="yes"/>
      <point x="381" y="-152"/>
      <point x="375" y="-174"/>
      <point x="272" y="-216" type="curve" smooth="yes"/>
      <point x="156" y="-264" type="line"/>
      <point x="209" y="-395" type="line"/>
      <point x="290" y="-367" type="line" smooth="yes"/>
      <point x="503" y="-293"/>
      <point x="557" y="-251"/>
      <point x="557" y="5" type="curve" smooth="yes"/>
      <point x="557" y="1456" type="line"/>
    </contour>
    <contour>
      <point x="474" y="1456" type="move" name="top"/>
    </contour>
  </outline>
</glyph>
<glyph name="K" format="1">
  <advance width="1306"/>
  <unicode hex="004B"/>
  <outline>
    <contour>
      <point x="1284" y="1456" type="line"/>
      <point x="1092" y="1456" type="line"/>
      <point x="330" y="696" type="line"/>
      <point x="382" y="695" type="line"/>
      <point x="382" y="1456" type="line"/>
      <point x="206" y="1456" type="line"/>
      <point x="206" y="0" type="line"/>
      <point x="382" y="0" type="line"/>
      <point x="382" y="650" type="line"/>
      <point x="336" y="539" type="line"/>
      <point x="592" y="787" type="line"/>
      <point x="520" y="786" type="line"/>
      <point x="1122" y="0" type="line"/>
      <point x="1320" y="0" type="line"/>
      <point x="1320" y="20" type="line"/>
      <point x="637" y="896" type="line"/>
      <point x="637" y="800" type="line"/>
      <point x="1284" y="1434" type="line"/>
    </contour>
    <contour>
      <point x="683" y="0" type="move" name="bot"/>
    </contour>
    <contour>
      <point x="680" y="1456" type="move" name="top"/>
    </contour>
  </outline>
</glyph>
<glyph name="R" format="1">
  <advance width="1326"/>
  <unicode hex="0052"/>
  <outline>
    <contour>
      <point x="206" y="0" type="line"/>
      <point x="382" y="0" type="line"/>
      <point x="382" y="728" type="line"/>
      <point x="332" y="668" type="line"/>
      <point x="774" y="669" type="line"/>
      <point x="713" y="709" type="line"/>
      <point x="1072" y="0" type="line"/>
      <point x="1258" y="0" type="line"/>
      <point x="1258" y="20" type="line"/>
      <point x="894" y="717" type="line"/>
      <point x="871" y="679" type="line"/>
      <point x="1102" y="723"/>
      <point x="1229" y="850"/>
      <point x="1224" y="1086" type="curve" smooth="yes"/>
      <point x="1216" y="1426"/>
      <point x="971" y="1518"/>
      <point x="206" y="1432" type="curve"/>
    </contour>
    <contour>
      <point x="382" y="747" type="line"/>
      <point x="382" y="1367" type="line"/>
      <point x="317" y="1316" type="line"/>
      <point x="958" y="1381"/>
      <point x="1060" y="1287"/>
      <point x="1062" y="1077" type="curve" smooth="yes"/>
      <point x="1064" y="875"/>
      <point x="987" y="792"/>
      <point x="641" y="792" type="curve" smooth="yes"/>
      <point x="337" y="792" type="line"/>
    </contour>
    <contour>
      <point x="713" y="0" type="move" name="bot"/>
    </contour>
    <contour>
      <point x="704" y="1456" type="move" name="top"/>
    </contour>
  </outline>
</glyph>
<glyph name="S" format="1">
  <advance width="1221"/>
  <unicode hex="0053"/>
  <outline>
    <contour>
      <point x="598" y="-20" type="curve" smooth="yes"/>
      <point x="833" y="-20"/>
      <point x="1094" y="72"/>
      <point x="1097" y="374" type="curve" smooth="yes"/>
      <point x="1100" y="638"/>
      <point x="960" y="707"/>
      <point x="716" y="804" type="curve" smooth="yes"/>
      <point x="508" y="888" type="line" smooth="yes"/>
      <point x="338" y="959"/>
      <point x="293" y="995"/>
      <point x="297" y="1123" type="curve" smooth="yes"/>
      <point x="303" y="1291"/>
      <point x="458" y="1338"/>
      <point x="632" y="1334" type="curve" smooth="yes"/>
      <point x="773" y="1331"/>
      <point x="900" y="1277"/>
      <point x="975" y="1195" type="curve"/>
      <point x="989" y="1195" type="line"/>
      <point x="1078" y="1297" type="line"/>
      <point x="970" y="1416"/>
      <point x="799" y="1478"/>
      <point x="612" y="1476" type="curve" smooth="yes"/>
      <point x="372" y="1473"/>
      <point x="139" y="1403"/>
      <point x="121" y="1125" type="curve" smooth="yes"/>
      <point x="105" y="892"/>
      <point x="224" y="830"/>
      <point x="443" y="740" type="curve" smooth="yes"/>
      <point x="644" y="657" type="line" smooth="yes"/>
      <point x="871" y="563"/>
      <point x="937" y="525"/>
      <point x="932" y="369" type="curve" smooth="yes"/>
      <point x="926" y="189"/>
      <point x="783" y="123"/>
      <point x="598" y="123" type="curve" smooth="yes"/>
      <point x="462" y="123"/>
      <point x="320" y="166"/>
      <point x="222" y="261" type="curve"/>
      <point x="210" y="261" type="line"/>
      <point x="116" y="164" type="line"/>
      <point x="198" y="66"/>
      <point x="372" y="-20"/>
    </contour>
    <contour>
      <point x="625" y="0" type="move" name="bot"/>
    </contour>
    <contour>
      <point x="620" y="1476" type="move" name="top"/>
    </contour>
  </outline>
</glyph>
<glyph name="U" format="1">
  <advance width="1448"/>
  <unicode hex="0055"/>
  <outline>
    <contour>
      <point x="1093" y="1457" type="line"/>
      <point x="1093" y="546" type="line" smooth="yes"/>
      <point x="1093" y="271"/>
      <point x="984" y="123"/>
      <point x="721" y="123" type="curve" smooth="yes"/>
      <point x="449" y="123"/>
      <point x="349" y="271"/>
      <point x="349" y="546" type="curve" smooth="yes"/>
      <point x="349" y="1457" type="line"/>
      <point x="173" y="1457" type="line"/>
      <point x="173" y="543" type="line" smooth="yes"/>
      <point x="173" y="211"/>
      <point x="333" y="-20"/>
      <point x="721" y="-20" type="curve" smooth="yes"/>
      <point x="1105" y="-20"/>
      <point x="1269" y="217"/>
      <point x="1269" y="540" type="curve" smooth="yes"/>
      <point x="1269" y="1457" type="line"/>
    </contour>
    <contour>
      <point x="866" y="21" type="move" name="ogonek"/>
    </contour>
    <contour>
      <point x="718" y="1" type="move" name="bot"/>
    </contour>
    <contour>
      <point x="733" y="1456" type="move" name="top"/>
    </contour>
  </outline>
</glyph>
<glyph name="Y" format="1">
  <advance width="1366"/>
  <unicode hex="0059"/>
  <outline>
    <contour>
      <point x="1108" y="1456" type="line"/>
      <point x="657" y="608" type="line"/>
      <point x="713" y="608" type="line"/>
      <point x="246" y="1456" type="line"/>
      <point x="84" y="1456" type="line"/>
      <point x="636" y="441" type="line"/>
      <point x="597" y="568" type="line"/>
      <point x="597" y="0" type="line"/>
      <point x="773" y="0" type="line"/>
      <point x="773" y="566" type="line"/>
      <point x="738" y="443" type="line"/>
      <point x="1282" y="1456" type="line"/>
    </contour>
    <contour>
      <point x="684" y="1456" type="move" name="top"/>
    </contour>
  </outline>
</glyph>
<glyph name="Z" format="1">
  <advance width="1182"/>
  <unicode hex="005A"/>
  <outline>
    <contour>
      <point x="90" y="0" type="line"/>
      <point x="1118" y="0" type="line"/>
      <point x="1126" y="137" type="line"/>
      <point x="231" y="137" type="line"/>
      <point x="255" y="86" type="line"/>
      <point x="1119" y="1332" type="line"/>
      <point x="1112" y="1456" type="line"/>
      <point x="123" y="1456" type="line"/>
      <point x="123" y="1321" type="line"/>
      <point x="990" y="1321" type="line"/>
      <point x="961" y="1378" type="line"/>
      <point x="90" y="127" type="line"/>
    </contour>
    <contour>
      <point x="654" y="0" type="move" name="bot"/>
    </contour>
    <contour>
      <point x="668" y="1456" type="move" name="top"/>
    </contour>
  </outline>
</glyph>
<glyph name="asciicircum" format="1">
  <advance width="937"/>
  <unicode hex="005E"/>
  <outline>
    <contour>
      <point x="374" y="1456" type="line"/>
      <point x="194" y="1074" type="line"/>
      <point x="305" y="1074" type="line"/>
      <point x="463" y="1355" type="line"/>
      <point x="617" y="1074" type="line"/>
      <point x="729" y="1074" type="line"/>
      <point x="561" y="1456" type="line"/>
    </contour>
  </outline>
</glyph>
<glyph name="underscore" format="1">
  <advance width="896"/>
  <unicode hex="005F"/>
  <outline>
    <contour>
      <point x="0" y="-260" type="line"/>
      <point x="896" y="-260" type="line"/>
      <point x="896" y="-138" type="line"/>
      <point x="0" y="-138" type="line"/>
    </contour>
  </outline>
</glyph>
<glyph name="i" format="1">
  <advance width="518"/>
  <unicode hex="0069"/>
  <outline>
    <component base="dotlessi"/>
    <component base="dotaccent" xOffset="-53"/>
    <contour>
      <point x="298.0" y="0.0" type="move" name="bot"/>
    </contour>
  </outline>
</glyph>
<glyph name="k" format="1">
  <advance width="1091"/>
  <unicode hex="006B"/>
  <outline>
    <contour>
      <point x="168" y="0" type="line"/>
      <point x="332" y="0" type="line"/>
      <point x="332" y="438" type="line"/>
      <point x="303" y="372" type="line"/>
      <point x="487" y="529" type="line"/>
      <point x="435" y="538" type="line"/>
      <point x="881" y="0" type="line"/>
      <point x="1060" y="0" type="line"/>
      <point x="1060" y="24" type="line"/>
      <point x="548" y="621" type="line"/>
      <point x="544" y="556" type="line"/>
      <point x="1026" y="1058" type="line"/>
      <point x="1026" y="1082" type="line"/>
      <point x="837" y="1082" type="line"/>
      <point x="291" y="499" type="line"/>
      <point x="325" y="486" type="line"/>
      <point x="332" y="757" type="line"/>
      <point x="332" y="1560" type="line"/>
      <point x="168" y="1540" type="line"/>
    </contour>
    <contour>
      <point x="587" y="0" type="move" name="bot"/>
    </contour>
  </outline>
</glyph>
<glyph name="m" format="1">
  <advance width="1824"/>
  <unicode hex="006D"/>
  <outline>
    <contour>
      <point x="168" y="0" type="line"/>
      <point x="332" y="0" type="line"/>
      <point x="332" y="639" type="line"/>
      <point x="358" y="830"/>
      <point x="457" y="980"/>
      <point x="627" y="980" type="curve" smooth="yes"/>
      <point x="779" y="980"/>
      <point x="838" y="864"/>
      <point x="838" y="609" type="curve" smooth="yes"/>
      <point x="838" y="0" type="line"/>
      <point x="1002" y="0" type="line"/>
      <point x="1002" y="593" type="line" smooth="yes"/>
      <point x="1002" y="607"/>
      <point x="1002" y="621"/>
      <point x="1003" y="634" type="curve" smooth="yes"/>
      <point x="1020" y="863"/>
      <point x="1176" y="980"/>
      <point x="1303" y="980" type="curve" smooth="yes"/>
      <point x="1482" y="980"/>
      <point x="1508" y="801"/>
      <point x="1508" y="646" type="curve" smooth="yes"/>
      <point x="1508" y="0" type="line"/>
      <point x="1672" y="0" type="line"/>
      <point x="1672" y="699" type="line" smooth="yes"/>
      <point x="1672" y="965"/>
      <point x="1549" y="1106"/>
      <point x="1329" y="1106" type="curve" smooth="yes"/>
      <point x="1166" y="1106"/>
      <point x="1023" y="1018"/>
      <point x="954" y="802" type="curve"/>
      <point x="977" y="808" type="line"/>
      <point x="947" y="986"/>
      <point x="836" y="1106"/>
      <point x="654" y="1106" type="curve" smooth="yes"/>
      <point x="508" y="1106"/>
      <point x="376" y="1030"/>
      <point x="311" y="833" type="curve"/>
      <point x="326" y="826" type="line"/>
      <point x="304" y="1082" type="line"/>
      <point x="168" y="1082" type="line"/>
    </contour>
    <contour>
      <point x="948" y="1082" type="move" name="top"/>
    </contour>
  </outline>
</glyph>
<glyph name="q" format="1">
  <advance width="1201"/>
  <unicode hex="0071"/>
  <outline>
    <contour>
      <point x="869" y="-456" type="line"/>
      <point x="1033" y="-456" type="line"/>
      <point x="1033" y="1082" type="line"/>
      <point x="897" y="1082" type="line"/>
      <point x="882" y="886" type="line"/>
      <point x="941" y="885" type="line"/>
      <point x="889" y="1003"/>
      <point x="771" y="1106"/>
      <point x="586" y="1106" type="curve" smooth="yes"/>
      <point x="291" y="1106"/>
      <point x="112" y="882"/>
      <point x="112" y="544" type="curve" smooth="yes"/>
      <point x="112" y="206"/>
      <point x="278" y="-22"/>
      <point x="588" y="-20" type="curve" smooth="yes"/>
      <point x="700" y="-19"/>
      <point x="872" y="17"/>
      <point x="946" y="198" type="curve"/>
      <point x="875" y="203" type="line"/>
      <point x="869" y="-19" type="line"/>
    </contour>
    <contour>
      <point x="592" y="106" type="curve" smooth="yes"/>
      <point x="378" y="106"/>
      <point x="281" y="272"/>
      <point x="281" y="545" type="curve" smooth="yes"/>
      <point x="281" y="809"/>
      <point x="380" y="980"/>
      <point x="590" y="980" type="curve" smooth="yes"/>
      <point x="710" y="980"/>
      <point x="807" y="936"/>
      <point x="876" y="840" type="curve"/>
      <point x="876" y="228" type="line"/>
      <point x="817" y="147"/>
      <point x="711" y="106"/>
    </contour>
  </outline>
</glyph>
<glyph name="r" format="1">
  <advance width="767"/>
  <unicode hex="0072"/>
  <outline>
    <contour>
      <point x="170" y="0" type="line"/>
      <point x="334" y="0" type="line"/>
      <point x="334" y="614" type="line" smooth="yes"/>
      <point x="334" y="803"/>
      <point x="433" y="959"/>
      <point x="658" y="959" type="curve" smooth="yes"/>
      <point x="696" y="959" type="line"/>
      <point x="709" y="1091" type="line"/>
      <point x="686" y="1095"/>
      <point x="665" y="1096"/>
      <point x="635" y="1096" type="curve" smooth="yes"/>
      <point x="497" y="1096"/>
      <point x="374" y="1024"/>
      <point x="299" y="799" type="curve"/>
      <point x="324" y="788" type="line"/>
      <point x="301" y="1082" type="line"/>
      <point x="170" y="1082" type="line"/>
    </contour>
    <contour>
      <point x="283" y="0" type="move" name="bot"/>
    </contour>
    <contour>
      <point x="463" y="1082" type="move" name="top"/>
    </contour>
  </outline>
</glyph>
<glyph name="s" format="1">
  <advance width="972.002"/>
  <unicode hex="0073"/>
  <outline>
    <contour>
      <point x="176" y="233" type="line"/>
      <point x="88" y="147" type="line"/>
      <point x="174" y="38"/>
      <point x="333" y="-20"/>
      <point x="501" y="-20" type="curve" smooth="yes"/>
      <point x="701" y="-20"/>
      <point x="874" y="69"/>
      <point x="881" y="291" type="curve" smooth="yes"/>
      <point x="885" y="421"/>
      <point x="858" y="530"/>
      <point x="579" y="619" type="curve" smooth="yes"/>
      <point x="461" y="654" type="line" smooth="yes"/>
      <point x="304" y="703"/>
      <point x="277" y="740"/>
      <point x="277" y="820" type="curve" smooth="yes"/>
      <point x="277" y="921"/>
      <point x="350" y="985"/>
      <point x="522" y="980" type="curve" smooth="yes"/>
      <point x="631" y="977"/>
      <point x="713" y="930"/>
      <point x="756" y="877" type="curve"/>
      <point x="766" y="877" type="line"/>
      <point x="860" y="952" type="line"/>
      <point x="798" y="1038"/>
      <point x="681" y="1106"/>
      <point x="507" y="1106" type="curve" smooth="yes"/>
      <point x="267" y="1106"/>
      <point x="118" y="996"/>
      <point x="118" y="818" type="curve" smooth="yes"/>
      <point x="118" y="692"/>
      <point x="147" y="603"/>
      <point x="414" y="520" type="curve" smooth="yes"/>
      <point x="538" y="483" type="line" smooth="yes"/>
      <point x="727" y="424"/>
      <point x="736" y="370"/>
      <point x="731" y="283" type="curve" smooth="yes"/>
      <point x="725" y="160"/>
      <point x="637" y="102"/>
      <point x="503" y="102" type="curve" smooth="yes"/>
      <point x="399" y="102"/>
      <point x="275" y="134"/>
      <point x="189" y="233" type="curve"/>
    </contour>
    <contour>
      <point x="473" y="1" type="move" name="bot"/>
    </contour>
    <contour>
      <point x="509" y="1083" type="move" name="top"/>
    </contour>
  </outline>
</glyph>
<glyph name="v" format="1">
  <advance width="1079"/>
  <unicode hex="0076"/>
  <outline>
    <contour>
      <point x="461" y="0" type="line"/>
      <point x="628" y="0" type="line"/>
      <point x="1017" y="1082" type="line"/>
      <point x="851" y="1082" type="line"/>
      <point x="669" y="550" type="line"/>
      <point x="525" y="136" type="line"/>
      <point x="568" y="136" type="line"/>
      <point x="419" y="551" type="line"/>
      <point x="235" y="1082" type="line"/>
      <point x="67" y="1082" type="line"/>
    </contour>
  </outline>
</glyph>
<glyph name="x" format="1">
  <advance width="1054"/>
  <unicode hex="0078"/>
  <outline>
    <contour>
      <point x="821" y="1082" type="line"/>
      <point x="528" y="646" type="line"/>
      <point x="444" y="557" type="line"/>
      <point x="58" y="0" type="line"/>
      <point x="225" y="0" type="line"/>
      <point x="519" y="436" type="line"/>
      <point x="608" y="531" type="line"/>
      <point x="989" y="1082" type="line"/>
    </contour>
    <contour>
      <point x="80" y="1082" type="line"/>
      <point x="807" y="0" type="line"/>
      <point x="992" y="0" type="line"/>
      <point x="265" y="1082" type="line"/>
    </contour>
  </outline>
</glyph>
<glyph name="z" format="1">
  <advance width="1017"/>
  <unicode hex="007A"/>
  <outline>
    <contour>
      <point x="126" y="1082" type="line"/>
      <point x="132" y="960" type="line"/>
      <point x="756" y="960" type="line"/>
      <point x="743" y="997" type="line"/>
      <point x="105" y="110" type="line"/>
      <point x="105" y="0" type="line"/>
      <point x="897" y="0" type="line"/>
      <point x="889" y="127" type="line"/>
      <point x="236" y="127" type="line"/>
      <point x="259" y="89" type="line"/>
      <point x="888" y="966" type="line"/>
      <point x="888" y="1082" type="line"/>
    </contour>
    <contour>
      <point x="479" y="0" type="move" name="bot"/>
    </contour>
    <contour>
      <point x="514" y="1082" type="move" name="top"/>
    </contour>
  </outline>
</glyph>
<glyph name="braceright" format="1">
  <advance width="852"/>
  <unicode hex="007D"/>
  <outline>
    <contour>
      <point x="122" y="-256" type="line"/>
      <point x="426" y="-256"/>
      <point x="456" y="-203"/>
      <point x="456" y="91" type="curve" smooth="yes"/>
      <point x="456" y="248" type="line" smooth="yes"/>
      <point x="456" y="474"/>
      <point x="455" y="538"/>
      <point x="655" y="538" type="curve"/>
      <point x="655" y="538"/>
      <point x="655" y="680"/>
      <point x="655" y="680" type="curve"/>
      <point x="458" y="680"/>
      <point x="456" y="744"/>
      <point x="456" y="970" type="curve" smooth="yes"/>
      <point x="456" y="1129" type="line" smooth="yes"/>
      <point x="456" y="1423"/>
      <point x="426" y="1476"/>
      <point x="122" y="1476" type="curve"/>
      <point x="122" y="1355" type="line"/>
      <point x="274" y="1355"/>
      <point x="280" y="1324"/>
      <point x="280" y="1116" type="curve" smooth="yes"/>
      <point x="280" y="884" type="line" smooth="yes"/>
      <point x="280" y="706"/>
      <point x="326" y="635"/>
      <point x="478" y="609" type="curve"/>
      <point x="326" y="583"/>
      <point x="280" y="512"/>
      <point x="280" y="334" type="curve" smooth="yes"/>
      <point x="280" y="104" type="line" smooth="yes"/>
      <point x="280" y="-104"/>
      <point x="274" y="-135"/>
      <point x="122" y="-135" type="curve"/>
    </contour>
  </outline>
</glyph>
<glyph name="cent" format="1">
  <advance width="1164"/>
  <unicode hex="00A2"/>
  <outline>
    <contour>
      <point x="306" y="1391" type="line"/>
      <point x="253" y="1042" type="line"/>
      <point x="417" y="1042" type="line"/>
      <point x="417" y="1391" type="line"/>
    </contour>
    <contour>
      <point x="236" y="62" type="line"/>
      <point x="236" y="-310" type="line"/>
      <point x="350" y="-310" type="line"/>
      <point x="400" y="62" type="line"/>
    </contour>
    <component base="c" xOffset="-273.835"/>
  </outline>
</glyph>
<glyph name="brokenbar" format="1">
  <advance width="653"/>
  <unicode hex="00A6"/>
  <outline>
    <contour>
      <point x="268" y="554" type="line"/>
      <point x="268" y="-208" type="line"/>
      <point x="392" y="-208" type="line"/>
      <point x="392" y="554" type="line"/>
    </contour>
    <contour>
      <point x="268" y="1584" type="line"/>
      <point x="268" y="825" type="line"/>
      <point x="392" y="825" type="line"/>
      <point x="392" y="1584" type="line"/>
    </contour>
  </outline>
</glyph>
<glyph name="ordfeminine" format="1">
  <advance width="1107"/>
  <unicode hex="00AA"/>
  <outline>
    <contour>
      <point x="398" y="1479"/>
      <point x="295" y="1425"/>
      <point x="222" y="1319" type="curve"/>
      <point x="289" y="1245" type="line"/>
      <point x="297" y="1245" type="line"/>
      <point x="374" y="1346"/>
      <point x="446" y="1376"/>
      <point x="556" y="1376" type="curve" smooth="yes"/>
      <point x="690" y="1376"/>
      <point x="755" y="1312"/>
      <point x="755" y="1164" type="curve" smooth="yes"/>
      <point x="755" y="1032" type="line"/>
      <point x="792" y="1054" type="line"/>
      <point x="721" y="1065"/>
      <point x="608" y="1070"/>
      <point x="558" y="1070" type="curve" smooth="yes"/>
      <point x="296" y="1070"/>
      <point x="198" y="968"/>
      <point x="198" y="813" type="curve" smooth="yes"/>
      <point x="198" y="648"/>
      <point x="305" y="564"/>
      <point x="461" y="556" type="curve" smooth="yes"/>
      <point x="622" y="549"/>
      <point x="731" y="609"/>
      <point x="812" y="750" type="curve"/>
      <point x="761" y="741" type="line"/>
      <point x="774" y="573" type="line"/>
      <point x="890" y="573" type="line"/>
      <point x="890" y="1156" type="line" smooth="yes"/>
      <point x="890" y="1393"/>
      <point x="753" y="1479"/>
      <point x="555" y="1479" type="curve" smooth="yes"/>
    </contour>
    <contour>
      <point x="755" y="747" type="line"/>
      <point x="775" y="808" type="line"/>
      <point x="714" y="708"/>
      <point x="603" y="645"/>
      <point x="468" y="658" type="curve" smooth="yes"/>
      <point x="392" y="665"/>
      <point x="328" y="709"/>
      <point x="328" y="812" type="curve" smooth="yes"/>
      <point x="328" y="913"/>
      <point x="383" y="977"/>
      <point x="571" y="977" type="curve" smooth="yes"/>
      <point x="616" y="977"/>
      <point x="729" y="971"/>
      <point x="792" y="960" type="curve"/>
      <point x="755" y="1004" type="line"/>
    </contour>
  </outline>
</glyph>
<glyph name="logicalnot" format="1">
  <advance width="1249"/>
  <unicode hex="00AC"/>
  <outline>
    <contour>
      <point x="105" y="804" type="line"/>
      <point x="105" y="676" type="line"/>
      <point x="940" y="676" type="line"/>
      <point x="940" y="253" type="line"/>
      <point x="1061" y="253" type="line"/>
      <point x="1061" y="804" type="line"/>
    </contour>
  </outline>
</glyph>
<glyph name="onequarter" format="1">
  <advance width="1590"/>
  <unicode hex="00BC"/>
  <outline>
    <contour>
      <point x="42" y="593" type="line"/>
      <point x="467" y="593" type="line"/>
      <point x="467" y="705" type="line"/>
      <point x="328" y="705" type="line"/>
      <point x="328" y="1476" type="line"/>
      <point x="218" y="1476" type="line"/>
      <point x="176" y="1437"/>
      <point x="63" y="1386"/>
      <point x="33" y="1373" type="curve"/>
      <point x="33" y="1259" type="line"/>
      <point x="61" y="1272"/>
      <point x="153" y="1309"/>
      <point x="190" y="1333" type="curve"/>
      <point x="190" y="705" type="line"/>
      <point x="42" y="705" type="line"/>
    </contour>
    <contour>
      <point x="1268" y="0" type="line"/>
      <point x="1395" y="0" type="line"/>
      <point x="1395" y="191" type="line"/>
      <point x="1517" y="191" type="line"/>
      <point x="1509" y="297" type="line"/>
      <point x="1396" y="297" type="line"/>
      <point x="1396" y="857" type="line"/>
      <point x="1258" y="857" type="line"/>
      <point x="863" y="284" type="line"/>
      <point x="863" y="191" type="line"/>
      <point x="1268" y="191" type="line"/>
    </contour>
    <contour>
      <point x="281" y="0" type="line"/>
      <point x="413" y="0" type="line"/>
      <point x="1320" y="1476" type="line"/>
      <point x="1189" y="1476" type="line"/>
    </contour>
    <contour>
      <point x="1002" y="297" type="line"/>
      <point x="1267" y="690" type="line"/>
      <point x="1267" y="297" type="line"/>
    </contour>
  </outline>
</glyph>
<glyph name="onehalf" format="1">
  <advance width="1647"/>
  <unicode hex="00BD"/>
  <outline>
    <contour>
      <point x="1041" y="0" type="line"/>
      <point x="1562" y="0" type="line"/>
      <point x="1568" y="114" type="line"/>
      <point x="1218" y="114" type="line"/>
      <point x="1389" y="281" type="line" smooth="yes"/>
      <point x="1513" y="402"/>
      <point x="1576" y="474"/>
      <point x="1576" y="615" type="curve" smooth="yes"/>
      <point x="1576" y="782"/>
      <point x="1445" y="871"/>
      <point x="1293" y="871" type="curve" smooth="yes"/>
      <point x="1178" y="871"/>
      <point x="1053" y="812"/>
      <point x="1000" y="716" type="curve"/>
      <point x="1072" y="637" type="line"/>
      <point x="1130" y="716"/>
      <point x="1213" y="751"/>
      <point x="1291" y="751" type="curve" smooth="yes"/>
      <point x="1373" y="751"/>
      <point x="1444" y="705"/>
      <point x="1444" y="607" type="curve" smooth="yes"/>
      <point x="1444" y="536"/>
      <point x="1404" y="474"/>
      <point x="1289" y="358" type="curve" smooth="yes"/>
      <point x="1041" y="110" type="line"/>
    </contour>
    <contour>
      <point x="35" y="593" type="line"/>
      <point x="460" y="593" type="line"/>
      <point x="460" y="705" type="line"/>
      <point x="321" y="705" type="line"/>
      <point x="321" y="1476" type="line"/>
      <point x="211" y="1476" type="line"/>
      <point x="169" y="1437"/>
      <point x="56" y="1386"/>
      <point x="26" y="1373" type="curve"/>
      <point x="26" y="1259" type="line"/>
      <point x="54" y="1272"/>
      <point x="146" y="1309"/>
      <point x="183" y="1333" type="curve"/>
      <point x="183" y="705" type="line"/>
      <point x="35" y="705" type="line"/>
    </contour>
    <contour>
      <point x="274" y="0" type="line"/>
      <point x="406" y="0" type="line"/>
      <point x="1313" y="1476" type="line"/>
      <point x="1182" y="1476" type="line"/>
    </contour>
  </outline>
</glyph>
<glyph name="threequarters" format="1">
  <advance width="1476"/>
  <unicode hex="00BE"/>
  <outline>
    <contour>
      <point x="175" y="594" type="curve" smooth="yes"/>
      <point x="320" y="594"/>
      <point x="454" y="677"/>
      <point x="454" y="855" type="curve" smooth="yes"/>
      <point x="454" y="952"/>
      <point x="395" y="1031"/>
      <point x="291" y="1062" type="curve"/>
      <point x="396" y="1087"/>
      <point x="434" y="1189"/>
      <point x="434" y="1261" type="curve" smooth="yes"/>
      <point x="434" y="1408"/>
      <point x="313" y="1477"/>
      <point x="180" y="1477" type="curve" smooth="yes"/>
      <point x="96" y="1477"/>
      <point x="8" y="1449"/>
      <point x="-58" y="1396" type="curve"/>
      <point x="-8" y="1304" type="line"/>
      <point x="59" y="1344"/>
      <point x="122" y="1363"/>
      <point x="175" y="1363" type="curve" smooth="yes"/>
      <point x="252" y="1363"/>
      <point x="304" y="1322"/>
      <point x="304" y="1242" type="curve" smooth="yes"/>
      <point x="304" y="1160"/>
      <point x="241" y="1110"/>
      <point x="147" y="1110" type="curve" smooth="yes"/>
      <point x="56" y="1110" type="line"/>
      <point x="56" y="997" type="line"/>
      <point x="150" y="997" type="line" smooth="yes"/>
      <point x="265" y="997"/>
      <point x="323" y="948"/>
      <point x="323" y="850" type="curve" smooth="yes"/>
      <point x="323" y="749"/>
      <point x="259" y="708"/>
      <point x="176" y="708" type="curve" smooth="yes"/>
      <point x="117" y="708"/>
      <point x="48" y="730"/>
      <point x="-11" y="766" type="curve"/>
      <point x="-56" y="669" type="line"/>
      <point x="10" y="620"/>
      <point x="95" y="594"/>
    </contour>
    <contour>
      <point x="1144" y="0" type="line"/>
      <point x="1271" y="0" type="line"/>
      <point x="1271" y="191" type="line"/>
      <point x="1393" y="191" type="line"/>
      <point x="1385" y="297" type="line"/>
      <point x="1272" y="297" type="line"/>
      <point x="1272" y="857" type="line"/>
      <point x="1134" y="857" type="line"/>
      <point x="739" y="284" type="line"/>
      <point x="739" y="191" type="line"/>
      <point x="1144" y="191" type="line"/>
    </contour>
    <contour>
      <point x="157" y="0" type="line"/>
      <point x="289" y="0" type="line"/>
      <point x="1196" y="1476" type="line"/>
      <point x="1065" y="1476" type="line"/>
    </contour>
    <contour>
      <point x="878" y="297" type="line"/>
      <point x="1143" y="690" type="line"/>
      <point x="1143" y="297" type="line"/>
    </contour>
  </outline>
</glyph>
<glyph name="Oslash" format="1">
  <advance width="1616"/>
  <unicode hex="00D8"/>
  <outline>
    <contour>
      <point x="520" y="-250" type="line"/>
      <point x="616" y="1" type="line"/>
      <point x="675" y="-13"/>
      <point x="740" y="-20"/>
      <point x="811" y="-20" type="curve" smooth="yes"/>
      <point x="1253" y="-20"/>
      <point x="1456" y="275"/>
      <point x="1456" y="718" type="curve" smooth="yes"/>
      <point x="1456" y="1038"/>
      <point x="1353" y="1278"/>
      <point x="1148" y="1396" type="curve"/>
      <point x="1244" y="1648" type="line"/>
      <point x="1142" y="1687" type="line"/>
      <point x="1049" y="1440" type="line"/>
      <point x="979" y="1464"/>
      <point x="900" y="1476"/>
      <point x="812" y="1476" type="curve" smooth="yes"/>
      <point x="374" y="1476"/>
      <point x="160" y="1184"/>
      <point x="160" y="721" type="curve" smooth="yes"/>
      <point x="160" y="383"/>
      <point x="274" y="136"/>
      <point x="518" y="33" type="curve"/>
      <point x="424" y="-216" type="line"/>
    </contour>
    <contour>
      <point x="571" y="174" type="line"/>
      <point x="401" y="263"/>
      <point x="337" y="462"/>
      <point x="337" y="720" type="curve" smooth="yes"/>
      <point x="337" y="1091"/>
      <point x="471" y="1334"/>
      <point x="811" y="1334" type="curve" smooth="yes"/>
      <point x="882" y="1334"/>
      <point x="944" y="1323"/>
      <point x="997" y="1303" type="curve"/>
    </contour>
    <contour>
      <point x="809" y="122" type="curve" smooth="yes"/>
      <point x="757" y="122"/>
      <point x="710" y="127"/>
      <point x="668" y="138" type="curve"/>
      <point x="1092" y="1251" type="line"/>
      <point x="1225" y="1149"/>
      <point x="1280" y="961"/>
      <point x="1280" y="720" type="curve" smooth="yes"/>
      <point x="1280" y="365"/>
      <point x="1159" y="122"/>
    </contour>
    <contour>
      <point x="812" y="1456" type="move" name="top"/>
    </contour>
  </outline>
</glyph>
<glyph name="oslash" format="1">
  <advance width="1200"/>
  <unicode hex="00F8"/>
  <outline>
    <contour>
      <point x="187" y="-124" type="line"/>
      <point x="252" y="-162" type="line"/>
      <point x="977" y="1200" type="line"/>
      <point x="906" y="1238" type="line"/>
    </contour>
    <component base="o"/>
  </outline>
</glyph>
<glyph name="uni0237" format="1">
  <advance width="908"/>
  <unicode hex="0237"/>
  <outline>
    <contour>
      <point x="504" y="1111" type="line"/>
      <point x="504" y="-87" type="line" smooth="yes"/>
      <point x="504" y="-123"/>
      <point x="505" y="-154"/>
      <point x="505" y="-180" type="curve" smooth="yes"/>
      <point x="505" y="-277"/>
      <point x="490" y="-313"/>
      <point x="347" y="-313" type="curve" smooth="yes"/>
      <point x="287" y="-313" type="line"/>
      <point x="320" y="-455" type="line"/>
      <point x="377" y="-455" type="line" smooth="yes"/>
      <point x="631" y="-455"/>
      <point x="684" y="-370"/>
      <point x="684" y="-112" type="curve" smooth="yes"/>
      <point x="684" y="1111" type="line"/>
    </contour>
  </outline>
</glyph>
<glyph name="dotaccent" format="1">
  <advance width="600"/>
  <unicode hex="02D9"/>
  <outline>
    <contour>
      <point x="423" y="1372" type="curve" smooth="yes"/>
      <point x="423" y="1438"/>
      <point x="396" y="1476"/>
      <point x="328" y="1476" type="curve" smooth="yes"/>
      <point x="258" y="1476"/>
      <point x="232" y="1438"/>
      <point x="232" y="1372" type="curve" smooth="yes"/>
      <point x="232" y="1304"/>
      <point x="258" y="1265"/>
      <point x="328" y="1265" type="curve" smooth="yes"/>
      <point x="396" y="1265"/>
      <point x="423" y="1304"/>
    </contour>
    <contour>
      <point x="327" y="1082" type="move" name="_top"/>
    </contour>
  </outline>
</glyph>
<glyph name="endash" format="1">
  <advance width="1334"/>
  <unicode hex="2013"/>
  <outline>
    <contour>
      <point x="65" y="531" type="line"/>
      <point x="1269" y="531" type="line"/>
      <point x="1269" y="652" type="line"/>
      <point x="65" y="652" type="line"/>
    </contour>
    <contour>
      <point x="679" y="589" type="move" name="_mid"/>
    </contour>
  </outline>
</glyph>
<glyph name="guilsinglright" format="1">
  <advance width="766"/>
  <unicode hex="203A"/>
  <outline>
    <contour>
      <point x="156" y="148" type="line"/>
      <point x="315" y="148" type="line"/>
      <point x="608" y="570" type="line"/>
      <point x="310" y="1001" type="line"/>
      <point x="150" y="1001" type="line"/>
      <point x="435" y="569" type="line"/>
    </contour>
  </outline>
</glyph>
<glyph name="trademark" format="1">
  <advance width="2216"/>
  <unicode hex="2122"/>
  <outline>
    <contour>
      <point x="981" y="462" type="line"/>
      <point x="1105" y="462" type="line"/>
      <point x="1110" y="1285" type="line"/>
      <point x="1419" y="576" type="line"/>
      <point x="1522" y="576" type="line"/>
      <point x="1833" y="1276" type="line"/>
      <point x="1839" y="462" type="line"/>
      <point x="1961" y="462" type="line"/>
      <point x="1944" y="1456" type="line"/>
      <point x="1801" y="1456" type="line"/>
      <point x="1472" y="725" type="line"/>
      <point x="1145" y="1456" type="line"/>
      <point x="998" y="1456" type="line"/>
    </contour>
    <contour>
      <point x="396" y="462" type="line"/>
      <point x="536" y="462" type="line"/>
      <point x="536" y="1342" type="line"/>
      <point x="854" y="1342" type="line"/>
      <point x="854" y="1456" type="line"/>
      <point x="80" y="1456" type="line"/>
      <point x="80" y="1342" type="line"/>
      <point x="396" y="1342" type="line"/>
    </contour>
  </outline>
</glyph>
<glyph name="summation" format="1">
  <advance width="1050"/>
  <unicode hex="2211"/>
  <outline>
    <contour>
      <point x="87" y="1500" type="line"/>
      <point x="87" y="1405" type="line"/>
      <point x="571" y="671" type="line"/>
      <point x="65" y="-57" type="line"/>
      <point x="65" y="-148" type="line"/>
      <point x="1027" y="-148" type="line"/>
      <point x="1027" y="4" type="line"/>
      <point x="296" y="4" type="line"/>
      <point x="768" y="664" type="line"/>
      <point x="313" y="1357" type="line"/>
      <point x="980" y="1357" type="line"/>
      <point x="980" y="1500" type="line"/>
    </contour>
  </outline>
</glyph>
<glyph name="approxequal" format="1">
  <advance width="1136"/>
  <unicode hex="2248"/>
  <outline>
    <contour>
      <point x="810" y="916" type="curve" smooth="yes"/>
      <point x="750" y="916"/>
      <point x="671" y="956"/>
      <point x="576" y="997" type="curve"/>
      <point x="476" y="1042"/>
      <point x="419" y="1065"/>
      <point x="340" y="1065" type="curve" smooth="yes"/>
      <point x="212" y="1065"/>
      <point x="126" y="978"/>
      <point x="81" y="867" type="curve"/>
      <point x="122" y="771" type="line"/>
      <point x="168" y="859"/>
      <point x="249" y="933"/>
      <point x="337" y="933" type="curve" smooth="yes"/>
      <point x="407" y="933"/>
      <point x="482" y="898"/>
      <point x="586" y="851" type="curve" smooth="yes"/>
      <point x="667" y="814"/>
      <point x="739" y="785"/>
      <point x="808" y="785" type="curve" smooth="yes"/>
      <point x="931" y="785"/>
      <point x="1008" y="862"/>
      <point x="1057" y="986" type="curve"/>
      <point x="1010" y="1075" type="line"/>
      <point x="972" y="989"/>
      <point x="892" y="916"/>
    </contour>
    <contour>
      <point x="810" y="586" type="curve" smooth="yes"/>
      <point x="750" y="586"/>
      <point x="671" y="626"/>
      <point x="576" y="667" type="curve"/>
      <point x="476" y="712"/>
      <point x="419" y="735"/>
      <point x="340" y="735" type="curve" smooth="yes"/>
      <point x="212" y="735"/>
      <point x="126" y="648"/>
      <point x="81" y="537" type="curve"/>
      <point x="122" y="441" type="line"/>
      <point x="168" y="529"/>
      <point x="249" y="603"/>
      <point x="337" y="603" type="curve" smooth="yes"/>
      <point x="407" y="603"/>
      <point x="482" y="568"/>
      <point x="586" y="521" type="curve" smooth="yes"/>
      <point x="667" y="484"/>
      <point x="739" y="455"/>
      <point x="808" y="455" type="curve" smooth="yes"/>
      <point x="931" y="455"/>
      <point x="1008" y="532"/>
      <point x="1057" y="656" type="curve"/>
      <point x="1010" y="745" type="line"/>
      <point x="972" y="659"/>
      <point x="892" y="586"/>
    </contour>
  </outline>
</glyph>
<glyph name="lessequal" format="1">
  <advance width="1192"/>
  <unicode hex="2264"/>
  <outline>
    <contour>
      <point x="1032" y="236" type="line"/>
      <point x="1032" y="373" type="line"/>
      <point x="322" y="758" type="line"/>
      <point x="1028" y="1169" type="line"/>
      <point x="1028" y="1309" type="line"/>
      <point x="147" y="798" type="line"/>
      <point x="147" y="718" type="line"/>
    </contour>
    <contour>
      <point x="128" y="8" type="line"/>
      <point x="1062" y="8" type="line"/>
      <point x="1062" y="133" type="line"/>
      <point x="128" y="134" type="line"/>
    </contour>
  </outline>
</glyph>
<glyph name="dotlessj" format="1">
  <advance width="584"/>
  <outline>
    <contour>
      <point x="246" y="1082" type="line"/>
      <point x="246" y="21" type="line" smooth="yes"/>
      <point x="246" y="-169"/>
      <point x="243" y="-205"/>
      <point x="94" y="-235" type="curve" smooth="yes"/>
      <point x="32" y="-247" type="line"/>
      <point x="51" y="-378" type="line"/>
      <point x="110" y="-371" type="line" smooth="yes"/>
      <point x="330" y="-344"/>
      <point x="410" y="-269"/>
      <point x="410" y="-10" type="curve" smooth="yes"/>
      <point x="410" y="1082" type="line"/>
    </contour>
    <contour>
      <point x="333" y="1082" type="move" name="top"/>
    </contour>
  </outline>
</glyph>
<glyph name="onesuperior" format="1">
  <advance width="795"/>
  <outline>
    <contour>
      <point x="185" y="572" type="line"/>
      <point x="616" y="572" type="line"/>
      <point x="616" y="684" type="line"/>
      <point x="477" y="684" type="line"/>
      <point x="477" y="1456" type="line"/>
      <point x="367" y="1456" type="line"/>
      <point x="325" y="1416"/>
      <point x="211" y="1365"/>
      <point x="175" y="1352" type="curve"/>
      <point x="175" y="1238" type="line"/>
      <point x="209" y="1251"/>
      <point x="302" y="1288"/>
      <point x="339" y="1312" type="curve"/>
      <point x="339" y="684" type="line"/>
      <point x="185" y="684" type="line"/>
    </contour>
  </outline>
</glyph>
